/* XPM */
static char *result[] = {
/* columns rows colors chars-per-pixel */
"80 80 4 1 ",
"  c black",
". c #FF004D",
"X c #FFA300",
"o c #FFEC27",
/* pixels */
"                                                                                ",
"                                                                                ",
"                                                                                ",
"                                                                                ",
"                                                                                ",
"                                                                                ",
"                                                                                ",
"                                                                                ",
"                                                                                ",
"                                                                                ",
"                                                                                ",
"                                                                                ",
"                                                                                ",
"                                                                                ",
"                                                                                ",
"                                                                                ",
"                                                                                ",
"                                                                                ",
"                                                                                ",
"                                                                                ",
"          oooooooooooooooooooooooooooooooooooooooooooooooooooooooooooo          ",
"          oooooooooooooooooooooooooooooooooooooooooooooooooooooooooooo          ",
"          oooooooooooooooooooooooooooooooooooooooooooooooooooooooooooo          ",
"          oooooooooooooooooooooooooooooooooooooooooooooooooooooooooooo          ",
"          oooooooooooooooooooooooooooooooooooooooooooooooooooooooooooo          ",
"          oooooooooooooooooooooooooooooooooooooooooooooooooooooooooooo          ",
"          oooooooooooooooooooooooooooooooooooooooooooooooooooooooooooo          ",
"          oooooooooooooooooooooooooooooooooooooooooooooooooooooooooooo          ",
"          oooooooooooooooooooooooooooooooooooooooooooooooooooooooooooo          ",
"          oooooooooooooooooooooooooooooooooooooooooooooooooooooooooooo          ",
"ooooooooooXXXXXXXXXXXXXXXXXXXX........................................oooooooooo",
"ooooooooooXXXXXXXXXXXXXXXXXXXX........................................oooooooooo",
"ooooooooooXXXXXXXXXXXXXXXXXXXX........................................oooooooooo",
"ooooooooooXXXXXXXXXXXXXXXXXXXX........................................oooooooooo",
"ooooooooooXXXXXXXXXXXXXXXXXXXX........................................oooooooooo",
"ooooooooooXXXXXXXXXXXXXXXXXXXX........................................oooooooooo",
"ooooooooooXXXXXXXXXXXXXXXXXXXX........................................oooooooooo",
"ooooooooooXXXXXXXXXXXXXXXXXXXX........................................oooooooooo",
"ooooooooooXXXXXXXXXXXXXXXXXXXX........................................oooooooooo",
"ooooooooooXXXXXXXXXXXXXXXXXXXX........................................oooooooooo",
"ooooooooooXXXXXXXXXX..................................................oooooooooo",
"ooooooooooXXXXXXXXXX..................................................oooooooooo",
"ooooooooooXXXXXXXXXX..................................................oooooooooo",
"ooooooooooXXXXXXXXXX..................................................oooooooooo",
"ooooooooooXXXXXXXXXX..................................................oooooooooo",
"ooooooooooXXXXXXXXXX..................................................oooooooooo",
"ooooooooooXXXXXXXXXX..................................................oooooooooo",
"ooooooooooXXXXXXXXXX..................................................oooooooooo",
"ooooooooooXXXXXXXXXX..................................................oooooooooo",
"ooooooooooXXXXXXXXXX..................................................oooooooooo",
"oooooooooooooooooooooooooooooooooooooooooooooooooooooooooooooooooooooooooooooooo",
"oooooooooooooooooooooooooooooooooooooooooooooooooooooooooooooooooooooooooooooooo",
"oooooooooooooooooooooooooooooooooooooooooooooooooooooooooooooooooooooooooooooooo",
"oooooooooooooooooooooooooooooooooooooooooooooooooooooooooooooooooooooooooooooooo",
"oooooooooooooooooooooooooooooooooooooooooooooooooooooooooooooooooooooooooooooooo",
"oooooooooooooooooooooooooooooooooooooooooooooooooooooooooooooooooooooooooooooooo",
"oooooooooooooooooooooooooooooooooooooooooooooooooooooooooooooooooooooooooooooooo",
"oooooooooooooooooooooooooooooooooooooooooooooooooooooooooooooooooooooooooooooooo",
"oooooooooooooooooooooooooooooooooooooooooooooooooooooooooooooooooooooooooooooooo",
"oooooooooooooooooooooooooooooooooooooooooooooooooooooooooooooooooooooooooooooooo",
"ooooooooooXXXXXXXXXX..........                    ....................oooooooooo",
"ooooooooooXXXXXXXXXX..........                    ....................oooooooooo",
"ooooooooooXXXXXXXXXX..........                    ....................oooooooooo",
"ooooooooooXXXXXXXXXX..........                    ....................oooooooooo",
"ooooooooooXXXXXXXXXX..........                    ....................oooooooooo",
"ooooooooooXXXXXXXXXX..........                    ....................oooooooooo",
"ooooooooooXXXXXXXXXX..........                    ....................oooooooooo",
"ooooooooooXXXXXXXXXX..........                    ....................oooooooooo",
"ooooooooooXXXXXXXXXX..........                    ....................oooooooooo",
"ooooooooooXXXXXXXXXX..........                    ....................oooooooooo",
"ooooooooooXXXXXXXXXX..................................................oooooooooo",
"ooooooooooXXXXXXXXXX..................................................oooooooooo",
"ooooooooooXXXXXXXXXX..................................................oooooooooo",
"ooooooooooXXXXXXXXXX..................................................oooooooooo",
"ooooooooooXXXXXXXXXX..................................................oooooooooo",
"ooooooooooXXXXXXXXXX..................................................oooooooooo",
"ooooooooooXXXXXXXXXX..................................................oooooooooo",
"ooooooooooXXXXXXXXXX..................................................oooooooooo",
"ooooooooooXXXXXXXXXX..................................................oooooooooo",
"ooooooooooXXXXXXXXXX..................................................oooooooooo"
};
