/* XPM */
static char *result[] = {
/* columns rows colors chars-per-pixel */
"8 8 3 1 ",
"  c black",
". c #00E436",
"X c #FFF1E8",
/* pixels */
"  XXXX  ",
" X    X ",
"X XX   X",
"X XX.. X",
"X  ... X",
"X  ... X",
" X    X ",
"  XXXX  "
};
