/* XPM */
static char *result[] = {
/* columns rows colors chars-per-pixel */
"80 80 3 1 ",
"  c black",
". c #00E436",
"X c #FFF1E8",
/* pixels */
"                    XXXXXXXXXXXXXXXXXXXXXXXXXXXXXXXXXXXXXXXX                    ",
"                    XXXXXXXXXXXXXXXXXXXXXXXXXXXXXXXXXXXXXXXX                    ",
"                    XXXXXXXXXXXXXXXXXXXXXXXXXXXXXXXXXXXXXXXX                    ",
"                    XXXXXXXXXXXXXXXXXXXXXXXXXXXXXXXXXXXXXXXX                    ",
"                    XXXXXXXXXXXXXXXXXXXXXXXXXXXXXXXXXXXXXXXX                    ",
"                    XXXXXXXXXXXXXXXXXXXXXXXXXXXXXXXXXXXXXXXX                    ",
"                    XXXXXXXXXXXXXXXXXXXXXXXXXXXXXXXXXXXXXXXX                    ",
"                    XXXXXXXXXXXXXXXXXXXXXXXXXXXXXXXXXXXXXXXX                    ",
"                    XXXXXXXXXXXXXXXXXXXXXXXXXXXXXXXXXXXXXXXX                    ",
"                    XXXXXXXXXXXXXXXXXXXXXXXXXXXXXXXXXXXXXXXX                    ",
"          XXXXXXXXXX                                        XXXXXXXXXX          ",
"          XXXXXXXXXX                                        XXXXXXXXXX          ",
"          XXXXXXXXXX                                        XXXXXXXXXX          ",
"          XXXXXXXXXX                                        XXXXXXXXXX          ",
"          XXXXXXXXXX                                        XXXXXXXXXX          ",
"          XXXXXXXXXX                                        XXXXXXXXXX          ",
"          XXXXXXXXXX                                        XXXXXXXXXX          ",
"          XXXXXXXXXX                                        XXXXXXXXXX          ",
"          XXXXXXXXXX                                        XXXXXXXXXX          ",
"          XXXXXXXXXX                                        XXXXXXXXXX          ",
"XXXXXXXXXX          XXXXXXXXXXXXXXXXXXXX                              XXXXXXXXXX",
"XXXXXXXXXX          XXXXXXXXXXXXXXXXXXXX                              XXXXXXXXXX",
"XXXXXXXXXX          XXXXXXXXXXXXXXXXXXXX                              XXXXXXXXXX",
"XXXXXXXXXX          XXXXXXXXXXXXXXXXXXXX                              XXXXXXXXXX",
"XXXXXXXXXX          XXXXXXXXXXXXXXXXXXXX                              XXXXXXXXXX",
"XXXXXXXXXX          XXXXXXXXXXXXXXXXXXXX                              XXXXXXXXXX",
"XXXXXXXXXX          XXXXXXXXXXXXXXXXXXXX                              XXXXXXXXXX",
"XXXXXXXXXX          XXXXXXXXXXXXXXXXXXXX                              XXXXXXXXXX",
"XXXXXXXXXX          XXXXXXXXXXXXXXXXXXXX                              XXXXXXXXXX",
"XXXXXXXXXX          XXXXXXXXXXXXXXXXXXXX                              XXXXXXXXXX",
"XXXXXXXXXX          XXXXXXXXXXXXXXXXXXXX....................          XXXXXXXXXX",
"XXXXXXXXXX          XXXXXXXXXXXXXXXXXXXX....................          XXXXXXXXXX",
"XXXXXXXXXX          XXXXXXXXXXXXXXXXXXXX....................          XXXXXXXXXX",
"XXXXXXXXXX          XXXXXXXXXXXXXXXXXXXX....................          XXXXXXXXXX",
"XXXXXXXXXX          XXXXXXXXXXXXXXXXXXXX....................          XXXXXXXXXX",
"XXXXXXXXXX          XXXXXXXXXXXXXXXXXXXX....................          XXXXXXXXXX",
"XXXXXXXXXX          XXXXXXXXXXXXXXXXXXXX....................          XXXXXXXXXX",
"XXXXXXXXXX          XXXXXXXXXXXXXXXXXXXX....................          XXXXXXXXXX",
"XXXXXXXXXX          XXXXXXXXXXXXXXXXXXXX....................          XXXXXXXXXX",
"XXXXXXXXXX          XXXXXXXXXXXXXXXXXXXX....................          XXXXXXXXXX",
"XXXXXXXXXX                    ..............................          XXXXXXXXXX",
"XXXXXXXXXX                    ..............................          XXXXXXXXXX",
"XXXXXXXXXX                    ..............................          XXXXXXXXXX",
"XXXXXXXXXX                    ..............................          XXXXXXXXXX",
"XXXXXXXXXX                    ..............................          XXXXXXXXXX",
"XXXXXXXXXX                    ..............................          XXXXXXXXXX",
"XXXXXXXXXX                    ..............................          XXXXXXXXXX",
"XXXXXXXXXX                    ..............................          XXXXXXXXXX",
"XXXXXXXXXX                    ..............................          XXXXXXXXXX",
"XXXXXXXXXX                    ..............................          XXXXXXXXXX",
"XXXXXXXXXX                    ..............................          XXXXXXXXXX",
"XXXXXXXXXX                    ..............................          XXXXXXXXXX",
"XXXXXXXXXX                    ..............................          XXXXXXXXXX",
"XXXXXXXXXX                    ..............................          XXXXXXXXXX",
"XXXXXXXXXX                    ..............................          XXXXXXXXXX",
"XXXXXXXXXX                    ..............................          XXXXXXXXXX",
"XXXXXXXXXX                    ..............................          XXXXXXXXXX",
"XXXXXXXXXX                    ..............................          XXXXXXXXXX",
"XXXXXXXXXX                    ..............................          XXXXXXXXXX",
"XXXXXXXXXX                    ..............................          XXXXXXXXXX",
"          XXXXXXXXXX                                        XXXXXXXXXX          ",
"          XXXXXXXXXX                                        XXXXXXXXXX          ",
"          XXXXXXXXXX                                        XXXXXXXXXX          ",
"          XXXXXXXXXX                                        XXXXXXXXXX          ",
"          XXXXXXXXXX                                        XXXXXXXXXX          ",
"          XXXXXXXXXX                                        XXXXXXXXXX          ",
"          XXXXXXXXXX                                        XXXXXXXXXX          ",
"          XXXXXXXXXX                                        XXXXXXXXXX          ",
"          XXXXXXXXXX                                        XXXXXXXXXX          ",
"          XXXXXXXXXX                                        XXXXXXXXXX          ",
"                    XXXXXXXXXXXXXXXXXXXXXXXXXXXXXXXXXXXXXXXX                    ",
"                    XXXXXXXXXXXXXXXXXXXXXXXXXXXXXXXXXXXXXXXX                    ",
"                    XXXXXXXXXXXXXXXXXXXXXXXXXXXXXXXXXXXXXXXX                    ",
"                    XXXXXXXXXXXXXXXXXXXXXXXXXXXXXXXXXXXXXXXX                    ",
"                    XXXXXXXXXXXXXXXXXXXXXXXXXXXXXXXXXXXXXXXX                    ",
"                    XXXXXXXXXXXXXXXXXXXXXXXXXXXXXXXXXXXXXXXX                    ",
"                    XXXXXXXXXXXXXXXXXXXXXXXXXXXXXXXXXXXXXXXX                    ",
"                    XXXXXXXXXXXXXXXXXXXXXXXXXXXXXXXXXXXXXXXX                    ",
"                    XXXXXXXXXXXXXXXXXXXXXXXXXXXXXXXXXXXXXXXX                    ",
"                    XXXXXXXXXXXXXXXXXXXXXXXXXXXXXXXXXXXXXXXX                    "
};
