/* XPM */
static char *_a361d9480354071e860f1eeff9c509bXv3pFX16wm3JGObn[] = {
/* columns rows colors chars-per-pixel */
"80 80 3 1 ",
"  c black",
". c #FFA300",
"X c #FFEC27",
/* pixels */
"          XXXXXXXXXXXXXXXXXXXXXXXXXXXXXXXXXXXXXXXXXXXXXXXXXX                    ",
"          XXXXXXXXXXXXXXXXXXXXXXXXXXXXXXXXXXXXXXXXXXXXXXXXXX                    ",
"          XXXXXXXXXXXXXXXXXXXXXXXXXXXXXXXXXXXXXXXXXXXXXXXXXX                    ",
"          XXXXXXXXXXXXXXXXXXXXXXXXXXXXXXXXXXXXXXXXXXXXXXXXXX                    ",
"          XXXXXXXXXXXXXXXXXXXXXXXXXXXXXXXXXXXXXXXXXXXXXXXXXX                    ",
"          XXXXXXXXXXXXXXXXXXXXXXXXXXXXXXXXXXXXXXXXXXXXXXXXXX                    ",
"          XXXXXXXXXXXXXXXXXXXXXXXXXXXXXXXXXXXXXXXXXXXXXXXXXX                    ",
"          XXXXXXXXXXXXXXXXXXXXXXXXXXXXXXXXXXXXXXXXXXXXXXXXXX                    ",
"          XXXXXXXXXXXXXXXXXXXXXXXXXXXXXXXXXXXXXXXXXXXXXXXXXX                    ",
"          XXXXXXXXXXXXXXXXXXXXXXXXXXXXXXXXXXXXXXXXXXXXXXXXXX                    ",
"          XXXXXXXXXX                              XXXXXXXXXX                    ",
"          XXXXXXXXXX                              XXXXXXXXXX                    ",
"          XXXXXXXXXX                              XXXXXXXXXX                    ",
"          XXXXXXXXXX                              XXXXXXXXXX                    ",
"          XXXXXXXXXX                              XXXXXXXXXX                    ",
"          XXXXXXXXXX                              XXXXXXXXXX                    ",
"          XXXXXXXXXX                              XXXXXXXXXX                    ",
"          XXXXXXXXXX                              XXXXXXXXXX                    ",
"          XXXXXXXXXX                              XXXXXXXXXX                    ",
"          XXXXXXXXXX                              XXXXXXXXXX                    ",
"          XXXXXXXXXX..........          ..........XXXXXXXXXX                    ",
"          XXXXXXXXXX..........          ..........XXXXXXXXXX                    ",
"          XXXXXXXXXX..........          ..........XXXXXXXXXX                    ",
"          XXXXXXXXXX..........          ..........XXXXXXXXXX                    ",
"          XXXXXXXXXX..........          ..........XXXXXXXXXX                    ",
"          XXXXXXXXXX..........          ..........XXXXXXXXXX                    ",
"          XXXXXXXXXX..........          ..........XXXXXXXXXX                    ",
"          XXXXXXXXXX..........          ..........XXXXXXXXXX                    ",
"          XXXXXXXXXX..........          ..........XXXXXXXXXX                    ",
"          XXXXXXXXXX..........          ..........XXXXXXXXXX                    ",
"          ..........XXXXXXXXXXXXXXXXXXXXXXXXXXXXXX..........                    ",
"          ..........XXXXXXXXXXXXXXXXXXXXXXXXXXXXXX..........                    ",
"          ..........XXXXXXXXXXXXXXXXXXXXXXXXXXXXXX..........                    ",
"          ..........XXXXXXXXXXXXXXXXXXXXXXXXXXXXXX..........                    ",
"          ..........XXXXXXXXXXXXXXXXXXXXXXXXXXXXXX..........                    ",
"          ..........XXXXXXXXXXXXXXXXXXXXXXXXXXXXXX..........                    ",
"          ..........XXXXXXXXXXXXXXXXXXXXXXXXXXXXXX..........                    ",
"          ..........XXXXXXXXXXXXXXXXXXXXXXXXXXXXXX..........                    ",
"          ..........XXXXXXXXXXXXXXXXXXXXXXXXXXXXXX..........                    ",
"          ..........XXXXXXXXXXXXXXXXXXXXXXXXXXXXXX..........                    ",
"                              XXXXXXXXXX                                        ",
"                              XXXXXXXXXX                                        ",
"                              XXXXXXXXXX                                        ",
"                              XXXXXXXXXX                                        ",
"                              XXXXXXXXXX                                        ",
"                              XXXXXXXXXX                                        ",
"                              XXXXXXXXXX                                        ",
"                              XXXXXXXXXX                                        ",
"                              XXXXXXXXXX                                        ",
"                              XXXXXXXXXX                                        ",
"                              XXXXXXXXXX....................                    ",
"                              XXXXXXXXXX....................                    ",
"                              XXXXXXXXXX....................                    ",
"                              XXXXXXXXXX....................                    ",
"                              XXXXXXXXXX....................                    ",
"                              XXXXXXXXXX....................                    ",
"                              XXXXXXXXXX....................                    ",
"                              XXXXXXXXXX....................                    ",
"                              XXXXXXXXXX....................                    ",
"                              XXXXXXXXXX....................                    ",
"                              XXXXXXXXXX..........                              ",
"                              XXXXXXXXXX..........                              ",
"                              XXXXXXXXXX..........                              ",
"                              XXXXXXXXXX..........                              ",
"                              XXXXXXXXXX..........                              ",
"                              XXXXXXXXXX..........                              ",
"                              XXXXXXXXXX..........                              ",
"                              XXXXXXXXXX..........                              ",
"                              XXXXXXXXXX..........                              ",
"                              XXXXXXXXXX..........                              ",
"                              XXXXXXXXXXXXXXXXXXXXXXXXXXXXXX                    ",
"                              XXXXXXXXXXXXXXXXXXXXXXXXXXXXXX                    ",
"                              XXXXXXXXXXXXXXXXXXXXXXXXXXXXXX                    ",
"                              XXXXXXXXXXXXXXXXXXXXXXXXXXXXXX                    ",
"                              XXXXXXXXXXXXXXXXXXXXXXXXXXXXXX                    ",
"                              XXXXXXXXXXXXXXXXXXXXXXXXXXXXXX                    ",
"                              XXXXXXXXXXXXXXXXXXXXXXXXXXXXXX                    ",
"                              XXXXXXXXXXXXXXXXXXXXXXXXXXXXXX                    ",
"                              XXXXXXXXXXXXXXXXXXXXXXXXXXXXXX                    ",
"                              XXXXXXXXXXXXXXXXXXXXXXXXXXXXXX                    "
};
