/* XPM */
static char *result[] = {
/* columns rows colors chars-per-pixel */
"8 8 3 1 ",
"  c black",
". c #FFA300",
"X c #FFEC27",
/* pixels */
" XXXXX  ",
" X   X  ",
" X. .X  ",
" .XXX.  ",
"   X    ",
"   X..  ",
"   X.   ",
"   XXX  "
};
