/* XPM */
static char *b14a9cc081d34587f8ebec36367ef45282mD5QEUFQwmGLvP[] = {
/* columns rows colors chars-per-pixel */
"80 80 3 1 ",
"  c black",
". c #FFA300",
"X c #FFEC27",
/* pixels */
"                    XXXXXXXXXXXXXXXXXXXXXXXXXXXXXX                              ",
"                    XXXXXXXXXXXXXXXXXXXXXXXXXXXXXX                              ",
"                    XXXXXXXXXXXXXXXXXXXXXXXXXXXXXX                              ",
"                    XXXXXXXXXXXXXXXXXXXXXXXXXXXXXX                              ",
"                    XXXXXXXXXXXXXXXXXXXXXXXXXXXXXX                              ",
"                    XXXXXXXXXXXXXXXXXXXXXXXXXXXXXX                              ",
"                    XXXXXXXXXXXXXXXXXXXXXXXXXXXXXX                              ",
"                    XXXXXXXXXXXXXXXXXXXXXXXXXXXXXX                              ",
"                    XXXXXXXXXXXXXXXXXXXXXXXXXXXXXX                              ",
"                    XXXXXXXXXXXXXXXXXXXXXXXXXXXXXX                              ",
"                    XXXXXXXXXX          XXXXXXXXXX                              ",
"                    XXXXXXXXXX          XXXXXXXXXX                              ",
"                    XXXXXXXXXX          XXXXXXXXXX                              ",
"                    XXXXXXXXXX          XXXXXXXXXX                              ",
"                    XXXXXXXXXX          XXXXXXXXXX                              ",
"                    XXXXXXXXXX          XXXXXXXXXX                              ",
"                    XXXXXXXXXX          XXXXXXXXXX                              ",
"                    XXXXXXXXXX          XXXXXXXXXX                              ",
"                    XXXXXXXXXX          XXXXXXXXXX                              ",
"                    XXXXXXXXXX          XXXXXXXXXX                              ",
"                    XXXXXXXXXX          XXXXXXXXXX                              ",
"                    XXXXXXXXXX          XXXXXXXXXX                              ",
"                    XXXXXXXXXX          XXXXXXXXXX                              ",
"                    XXXXXXXXXX          XXXXXXXXXX                              ",
"                    XXXXXXXXXX          XXXXXXXXXX                              ",
"                    XXXXXXXXXX          XXXXXXXXXX                              ",
"                    XXXXXXXXXX          XXXXXXXXXX                              ",
"                    XXXXXXXXXX          XXXXXXXXXX                              ",
"                    XXXXXXXXXX          XXXXXXXXXX                              ",
"                    XXXXXXXXXX          XXXXXXXXXX                              ",
"                    ..........XXXXXXXXXX..........                              ",
"                    ..........XXXXXXXXXX..........                              ",
"                    ..........XXXXXXXXXX..........                              ",
"                    ..........XXXXXXXXXX..........                              ",
"                    ..........XXXXXXXXXX..........                              ",
"                    ..........XXXXXXXXXX..........                              ",
"                    ..........XXXXXXXXXX..........                              ",
"                    ..........XXXXXXXXXX..........                              ",
"                    ..........XXXXXXXXXX..........                              ",
"                    ..........XXXXXXXXXX..........                              ",
"                              XXXXXXXXXX                                        ",
"                              XXXXXXXXXX                                        ",
"                              XXXXXXXXXX                                        ",
"                              XXXXXXXXXX                                        ",
"                              XXXXXXXXXX                                        ",
"                              XXXXXXXXXX                                        ",
"                              XXXXXXXXXX                                        ",
"                              XXXXXXXXXX                                        ",
"                              XXXXXXXXXX                                        ",
"                              XXXXXXXXXX                                        ",
"                              XXXXXXXXXX..........                              ",
"                              XXXXXXXXXX..........                              ",
"                              XXXXXXXXXX..........                              ",
"                              XXXXXXXXXX..........                              ",
"                              XXXXXXXXXX..........                              ",
"                              XXXXXXXXXX..........                              ",
"                              XXXXXXXXXX..........                              ",
"                              XXXXXXXXXX..........                              ",
"                              XXXXXXXXXX..........                              ",
"                              XXXXXXXXXX..........                              ",
"                              XXXXXXXXXX                                        ",
"                              XXXXXXXXXX                                        ",
"                              XXXXXXXXXX                                        ",
"                              XXXXXXXXXX                                        ",
"                              XXXXXXXXXX                                        ",
"                              XXXXXXXXXX                                        ",
"                              XXXXXXXXXX                                        ",
"                              XXXXXXXXXX                                        ",
"                              XXXXXXXXXX                                        ",
"                              XXXXXXXXXX                                        ",
"                              XXXXXXXXXX..........                              ",
"                              XXXXXXXXXX..........                              ",
"                              XXXXXXXXXX..........                              ",
"                              XXXXXXXXXX..........                              ",
"                              XXXXXXXXXX..........                              ",
"                              XXXXXXXXXX..........                              ",
"                              XXXXXXXXXX..........                              ",
"                              XXXXXXXXXX..........                              ",
"                              XXXXXXXXXX..........                              ",
"                              XXXXXXXXXX..........                              "
};
