/* XPM */
static char *result[] = {
/* columns rows colors chars-per-pixel */
"8 8 3 1 ",
"  c black",
". c #FFA300",
"X c #FFEC27",
/* pixels */
"  XXX   ",
"  X X   ",
"  X X   ",
"  .X.   ",
"   X    ",
"   X.   ",
"   X    ",
"   X.   "
};
