/* XPM */
static char *result[] = {
/* columns rows colors chars-per-pixel */
"8 8 2 1 ",
"  c black",
". c #FFEC27",
/* pixels */
"   .    ",
"   .    ",
"   .    ",
"   .    ",
"   .    ",
"   .    ",
"   .    ",
"   .    "
};
