/* XPM */
static char *_4c7250d454c469c887eee36031895b6Ec6uzXN2aBwdfpxy[] = {
/* columns rows colors chars-per-pixel */
"80 80 2 1 ",
"  c black",
". c #FFEC27",
/* pixels */
"                              ..........                                        ",
"                              ..........                                        ",
"                              ..........                                        ",
"                              ..........                                        ",
"                              ..........                                        ",
"                              ..........                                        ",
"                              ..........                                        ",
"                              ..........                                        ",
"                              ..........                                        ",
"                              ..........                                        ",
"                              ..........                                        ",
"                              ..........                                        ",
"                              ..........                                        ",
"                              ..........                                        ",
"                              ..........                                        ",
"                              ..........                                        ",
"                              ..........                                        ",
"                              ..........                                        ",
"                              ..........                                        ",
"                              ..........                                        ",
"                              ..........                                        ",
"                              ..........                                        ",
"                              ..........                                        ",
"                              ..........                                        ",
"                              ..........                                        ",
"                              ..........                                        ",
"                              ..........                                        ",
"                              ..........                                        ",
"                              ..........                                        ",
"                              ..........                                        ",
"                              ..........                                        ",
"                              ..........                                        ",
"                              ..........                                        ",
"                              ..........                                        ",
"                              ..........                                        ",
"                              ..........                                        ",
"                              ..........                                        ",
"                              ..........                                        ",
"                              ..........                                        ",
"                              ..........                                        ",
"                              ..........                                        ",
"                              ..........                                        ",
"                              ..........                                        ",
"                              ..........                                        ",
"                              ..........                                        ",
"                              ..........                                        ",
"                              ..........                                        ",
"                              ..........                                        ",
"                              ..........                                        ",
"                              ..........                                        ",
"                              ..........                                        ",
"                              ..........                                        ",
"                              ..........                                        ",
"                              ..........                                        ",
"                              ..........                                        ",
"                              ..........                                        ",
"                              ..........                                        ",
"                              ..........                                        ",
"                              ..........                                        ",
"                              ..........                                        ",
"                              ..........                                        ",
"                              ..........                                        ",
"                              ..........                                        ",
"                              ..........                                        ",
"                              ..........                                        ",
"                              ..........                                        ",
"                              ..........                                        ",
"                              ..........                                        ",
"                              ..........                                        ",
"                              ..........                                        ",
"                              ..........                                        ",
"                              ..........                                        ",
"                              ..........                                        ",
"                              ..........                                        ",
"                              ..........                                        ",
"                              ..........                                        ",
"                              ..........                                        ",
"                              ..........                                        ",
"                              ..........                                        ",
"                              ..........                                        "
};
