/* XPM */
static char *_8235352b7054ac8b69c79cca9b17ff5YOJktFBLBReYfEAt[] = {
/* columns rows colors chars-per-pixel */
"80 80 6 1 ",
"  c black",
". c #1D2B53",
"X c #FF004D",
"o c #008751",
"O c #FFCCAA",
"+ c #FFF1E8",
/* pixels */
"                                                                                ",
"                                                                                ",
"                                                                                ",
"                                                                                ",
"                                                                                ",
"                                                                                ",
"                                                                                ",
"                                                                                ",
"                                                                                ",
"                                                                                ",
"          XXXXXXXXXXXXXXXXXXXXXXXXXXXXXXXXXXXXXXXXXXXXXXXXXX                    ",
"          XXXXXXXXXXXXXXXXXXXXXXXXXXXXXXXXXXXXXXXXXXXXXXXXXX                    ",
"          XXXXXXXXXXXXXXXXXXXXXXXXXXXXXXXXXXXXXXXXXXXXXXXXXX                    ",
"          XXXXXXXXXXXXXXXXXXXXXXXXXXXXXXXXXXXXXXXXXXXXXXXXXX                    ",
"          XXXXXXXXXXXXXXXXXXXXXXXXXXXXXXXXXXXXXXXXXXXXXXXXXX                    ",
"          XXXXXXXXXXXXXXXXXXXXXXXXXXXXXXXXXXXXXXXXXXXXXXXXXX                    ",
"          XXXXXXXXXXXXXXXXXXXXXXXXXXXXXXXXXXXXXXXXXXXXXXXXXX                    ",
"          XXXXXXXXXXXXXXXXXXXXXXXXXXXXXXXXXXXXXXXXXXXXXXXXXX                    ",
"          XXXXXXXXXXXXXXXXXXXXXXXXXXXXXXXXXXXXXXXXXXXXXXXXXX                    ",
"          XXXXXXXXXXXXXXXXXXXXXXXXXXXXXXXXXXXXXXXXXXXXXXXXXX                    ",
"XXXXXXXXXXXXXXXXXXXXXXXXXXXXXXXXXXXXXXXXXXXXXXXXXXXXXXXXXXXXXXXXXXXXXX          ",
"XXXXXXXXXXXXXXXXXXXXXXXXXXXXXXXXXXXXXXXXXXXXXXXXXXXXXXXXXXXXXXXXXXXXXX          ",
"XXXXXXXXXXXXXXXXXXXXXXXXXXXXXXXXXXXXXXXXXXXXXXXXXXXXXXXXXXXXXXXXXXXXXX          ",
"XXXXXXXXXXXXXXXXXXXXXXXXXXXXXXXXXXXXXXXXXXXXXXXXXXXXXXXXXXXXXXXXXXXXXX          ",
"XXXXXXXXXXXXXXXXXXXXXXXXXXXXXXXXXXXXXXXXXXXXXXXXXXXXXXXXXXXXXXXXXXXXXX          ",
"XXXXXXXXXXXXXXXXXXXXXXXXXXXXXXXXXXXXXXXXXXXXXXXXXXXXXXXXXXXXXXXXXXXXXX          ",
"XXXXXXXXXXXXXXXXXXXXXXXXXXXXXXXXXXXXXXXXXXXXXXXXXXXXXXXXXXXXXXXXXXXXXX          ",
"XXXXXXXXXXXXXXXXXXXXXXXXXXXXXXXXXXXXXXXXXXXXXXXXXXXXXXXXXXXXXXXXXXXXXX          ",
"XXXXXXXXXXXXXXXXXXXXXXXXXXXXXXXXXXXXXXXXXXXXXXXXXXXXXXXXXXXXXXXXXXXXXX          ",
"XXXXXXXXXXXXXXXXXXXXXXXXXXXXXXXXXXXXXXXXXXXXXXXXXXXXXXXXXXXXXXXXXXXXXX          ",
"XXXXXXXXXXXXXXXXXXXXOOOOOOOOOOOOOOOOOOOOOOOOOOOOOOOOOOOOOOOOXXXXXXXXXX          ",
"XXXXXXXXXXXXXXXXXXXXOOOOOOOOOOOOOOOOOOOOOOOOOOOOOOOOOOOOOOOOXXXXXXXXXX          ",
"XXXXXXXXXXXXXXXXXXXXOOOOOOOOOOOOOOOOOOOOOOOOOOOOOOOOOOOOOOOOXXXXXXXXXX          ",
"XXXXXXXXXXXXXXXXXXXXOOOOOOOOOOOOOOOOOOOOOOOOOOOOOOOOOOOOOOOOXXXXXXXXXX          ",
"XXXXXXXXXXXXXXXXXXXXOOOOOOOOOOOOOOOOOOOOOOOOOOOOOOOOOOOOOOOOXXXXXXXXXX          ",
"XXXXXXXXXXXXXXXXXXXXOOOOOOOOOOOOOOOOOOOOOOOOOOOOOOOOOOOOOOOOXXXXXXXXXX          ",
"XXXXXXXXXXXXXXXXXXXXOOOOOOOOOOOOOOOOOOOOOOOOOOOOOOOOOOOOOOOOXXXXXXXXXX          ",
"XXXXXXXXXXXXXXXXXXXXOOOOOOOOOOOOOOOOOOOOOOOOOOOOOOOOOOOOOOOOXXXXXXXXXX          ",
"XXXXXXXXXXXXXXXXXXXXOOOOOOOOOOOOOOOOOOOOOOOOOOOOOOOOOOOOOOOOXXXXXXXXXX          ",
"XXXXXXXXXXXXXXXXXXXXOOOOOOOOOOOOOOOOOOOOOOOOOOOOOOOOOOOOOOOOXXXXXXXXXX          ",
"XXXXXXXXXXOOOOOOOOOO..........OOOOOOOOOOOOOOOOOOOO..........XXXXXXXXXX          ",
"XXXXXXXXXXOOOOOOOOOO..........OOOOOOOOOOOOOOOOOOOO..........XXXXXXXXXX          ",
"XXXXXXXXXXOOOOOOOOOO..........OOOOOOOOOOOOOOOOOOOO..........XXXXXXXXXX          ",
"XXXXXXXXXXOOOOOOOOOO..........OOOOOOOOOOOOOOOOOOOO..........XXXXXXXXXX          ",
"XXXXXXXXXXOOOOOOOOOO..........OOOOOOOOOOOOOOOOOOOO..........XXXXXXXXXX          ",
"XXXXXXXXXXOOOOOOOOOO..........OOOOOOOOOOOOOOOOOOOO..........XXXXXXXXXX          ",
"XXXXXXXXXXOOOOOOOOOO..........OOOOOOOOOOOOOOOOOOOO..........XXXXXXXXXX          ",
"XXXXXXXXXXOOOOOOOOOO..........OOOOOOOOOOOOOOOOOOOO..........XXXXXXXXXX          ",
"XXXXXXXXXXOOOOOOOOOO..........OOOOOOOOOOOOOOOOOOOO..........XXXXXXXXXX          ",
"XXXXXXXXXXOOOOOOOOOO..........OOOOOOOOOOOOOOOOOOOO..........XXXXXXXXXX          ",
"          OOOOOOOOOOOOOOOOOOOOOOOOOOOOOOOOOOOOOOOOOOOOOOOOOO                    ",
"          OOOOOOOOOOOOOOOOOOOOOOOOOOOOOOOOOOOOOOOOOOOOOOOOOO                    ",
"          OOOOOOOOOOOOOOOOOOOOOOOOOOOOOOOOOOOOOOOOOOOOOOOOOO                    ",
"          OOOOOOOOOOOOOOOOOOOOOOOOOOOOOOOOOOOOOOOOOOOOOOOOOO                    ",
"          OOOOOOOOOOOOOOOOOOOOOOOOOOOOOOOOOOOOOOOOOOOOOOOOOO                    ",
"          OOOOOOOOOOOOOOOOOOOOOOOOOOOOOOOOOOOOOOOOOOOOOOOOOO                    ",
"          OOOOOOOOOOOOOOOOOOOOOOOOOOOOOOOOOOOOOOOOOOOOOOOOOO                    ",
"          OOOOOOOOOOOOOOOOOOOOOOOOOOOOOOOOOOOOOOOOOOOOOOOOOO                    ",
"          OOOOOOOOOOOOOOOOOOOOOOOOOOOOOOOOOOOOOOOOOOOOOOOOOO                    ",
"          OOOOOOOOOOOOOOOOOOOOOOOOOOOOOOOOOOOOOOOOOOOOOOOOOO                    ",
"          oooooooooooooooooooooooooooooooooooooooo                              ",
"          oooooooooooooooooooooooooooooooooooooooo                              ",
"          oooooooooooooooooooooooooooooooooooooooo                              ",
"          oooooooooooooooooooooooooooooooooooooooo                              ",
"          oooooooooooooooooooooooooooooooooooooooo                              ",
"          oooooooooooooooooooooooooooooooooooooooo                              ",
"          oooooooooooooooooooooooooooooooooooooooo                              ",
"          oooooooooooooooooooooooooooooooooooooooo                              ",
"          oooooooooooooooooooooooooooooooooooooooo                              ",
"          oooooooooooooooooooooooooooooooooooooooo                              ",
"          ++++++++++                              ++++++++++                    ",
"          ++++++++++                              ++++++++++                    ",
"          ++++++++++                              ++++++++++                    ",
"          ++++++++++                              ++++++++++                    ",
"          ++++++++++                              ++++++++++                    ",
"          ++++++++++                              ++++++++++                    ",
"          ++++++++++                              ++++++++++                    ",
"          ++++++++++                              ++++++++++                    ",
"          ++++++++++                              ++++++++++                    ",
"          ++++++++++                              ++++++++++                    "
};
