/* XPM */
static char *result[] = {
/* columns rows colors chars-per-pixel */
"80 80 6 1 ",
"  c black",
". c #7E2553",
"X c #FF004D",
"o c #00E436",
"O c #008751",
"+ c #FFA300",
/* pixels */
"          OOOOOOOOOO                    oooooooooo          oooooooooo          ",
"          OOOOOOOOOO                    oooooooooo          oooooooooo          ",
"          OOOOOOOOOO                    oooooooooo          oooooooooo          ",
"          OOOOOOOOOO                    oooooooooo          oooooooooo          ",
"          OOOOOOOOOO                    oooooooooo          oooooooooo          ",
"          OOOOOOOOOO                    oooooooooo          oooooooooo          ",
"          OOOOOOOOOO                    oooooooooo          oooooooooo          ",
"          OOOOOOOOOO                    oooooooooo          oooooooooo          ",
"          OOOOOOOOOO                    oooooooooo          oooooooooo          ",
"          OOOOOOOOOO                    oooooooooo          oooooooooo          ",
"                    OOOOOOOOOOooooooooooOOOOOOOOOOOOOOOOOOOO                    ",
"                    OOOOOOOOOOooooooooooOOOOOOOOOOOOOOOOOOOO                    ",
"                    OOOOOOOOOOooooooooooOOOOOOOOOOOOOOOOOOOO                    ",
"                    OOOOOOOOOOooooooooooOOOOOOOOOOOOOOOOOOOO                    ",
"                    OOOOOOOOOOooooooooooOOOOOOOOOOOOOOOOOOOO                    ",
"                    OOOOOOOOOOooooooooooOOOOOOOOOOOOOOOOOOOO                    ",
"                    OOOOOOOOOOooooooooooOOOOOOOOOOOOOOOOOOOO                    ",
"                    OOOOOOOOOOooooooooooOOOOOOOOOOOOOOOOOOOO                    ",
"                    OOOOOOOOOOooooooooooOOOOOOOOOOOOOOOOOOOO                    ",
"                    OOOOOOOOOOooooooooooOOOOOOOOOOOOOOOOOOOO                    ",
"          ..........XXXXXXXXXXXXXXXXXXXXXXXXXXXXXXXXXXXXXXXX..........          ",
"          ..........XXXXXXXXXXXXXXXXXXXXXXXXXXXXXXXXXXXXXXXX..........          ",
"          ..........XXXXXXXXXXXXXXXXXXXXXXXXXXXXXXXXXXXXXXXX..........          ",
"          ..........XXXXXXXXXXXXXXXXXXXXXXXXXXXXXXXXXXXXXXXX..........          ",
"          ..........XXXXXXXXXXXXXXXXXXXXXXXXXXXXXXXXXXXXXXXX..........          ",
"          ..........XXXXXXXXXXXXXXXXXXXXXXXXXXXXXXXXXXXXXXXX..........          ",
"          ..........XXXXXXXXXXXXXXXXXXXXXXXXXXXXXXXXXXXXXXXX..........          ",
"          ..........XXXXXXXXXXXXXXXXXXXXXXXXXXXXXXXXXXXXXXXX..........          ",
"          ..........XXXXXXXXXXXXXXXXXXXXXXXXXXXXXXXXXXXXXXXX..........          ",
"          ..........XXXXXXXXXXXXXXXXXXXXXXXXXXXXXXXXXXXXXXXX..........          ",
"          XXXXXXXXXX++++++++++XXXXXXXXXXXXXXXXXXXXXXXXXXXXXXXXXXXXXXXX          ",
"          XXXXXXXXXX++++++++++XXXXXXXXXXXXXXXXXXXXXXXXXXXXXXXXXXXXXXXX          ",
"          XXXXXXXXXX++++++++++XXXXXXXXXXXXXXXXXXXXXXXXXXXXXXXXXXXXXXXX          ",
"          XXXXXXXXXX++++++++++XXXXXXXXXXXXXXXXXXXXXXXXXXXXXXXXXXXXXXXX          ",
"          XXXXXXXXXX++++++++++XXXXXXXXXXXXXXXXXXXXXXXXXXXXXXXXXXXXXXXX          ",
"          XXXXXXXXXX++++++++++XXXXXXXXXXXXXXXXXXXXXXXXXXXXXXXXXXXXXXXX          ",
"          XXXXXXXXXX++++++++++XXXXXXXXXXXXXXXXXXXXXXXXXXXXXXXXXXXXXXXX          ",
"          XXXXXXXXXX++++++++++XXXXXXXXXXXXXXXXXXXXXXXXXXXXXXXXXXXXXXXX          ",
"          XXXXXXXXXX++++++++++XXXXXXXXXXXXXXXXXXXXXXXXXXXXXXXXXXXXXXXX          ",
"          XXXXXXXXXX++++++++++XXXXXXXXXXXXXXXXXXXXXXXXXXXXXXXXXXXXXXXX          ",
"          XXXXXXXXXXXXXXXXXXXXXXXXXXXXXXXXXXXXXXXX++++++++++XXXXXXXXXX          ",
"          XXXXXXXXXXXXXXXXXXXXXXXXXXXXXXXXXXXXXXXX++++++++++XXXXXXXXXX          ",
"          XXXXXXXXXXXXXXXXXXXXXXXXXXXXXXXXXXXXXXXX++++++++++XXXXXXXXXX          ",
"          XXXXXXXXXXXXXXXXXXXXXXXXXXXXXXXXXXXXXXXX++++++++++XXXXXXXXXX          ",
"          XXXXXXXXXXXXXXXXXXXXXXXXXXXXXXXXXXXXXXXX++++++++++XXXXXXXXXX          ",
"          XXXXXXXXXXXXXXXXXXXXXXXXXXXXXXXXXXXXXXXX++++++++++XXXXXXXXXX          ",
"          XXXXXXXXXXXXXXXXXXXXXXXXXXXXXXXXXXXXXXXX++++++++++XXXXXXXXXX          ",
"          XXXXXXXXXXXXXXXXXXXXXXXXXXXXXXXXXXXXXXXX++++++++++XXXXXXXXXX          ",
"          XXXXXXXXXXXXXXXXXXXXXXXXXXXXXXXXXXXXXXXX++++++++++XXXXXXXXXX          ",
"          XXXXXXXXXXXXXXXXXXXXXXXXXXXXXXXXXXXXXXXX++++++++++XXXXXXXXXX          ",
"          XXXXXXXXXXXXXXXXXXXX++++++++++XXXXXXXXXXXXXXXXXXXXXXXXXXXXXX          ",
"          XXXXXXXXXXXXXXXXXXXX++++++++++XXXXXXXXXXXXXXXXXXXXXXXXXXXXXX          ",
"          XXXXXXXXXXXXXXXXXXXX++++++++++XXXXXXXXXXXXXXXXXXXXXXXXXXXXXX          ",
"          XXXXXXXXXXXXXXXXXXXX++++++++++XXXXXXXXXXXXXXXXXXXXXXXXXXXXXX          ",
"          XXXXXXXXXXXXXXXXXXXX++++++++++XXXXXXXXXXXXXXXXXXXXXXXXXXXXXX          ",
"          XXXXXXXXXXXXXXXXXXXX++++++++++XXXXXXXXXXXXXXXXXXXXXXXXXXXXXX          ",
"          XXXXXXXXXXXXXXXXXXXX++++++++++XXXXXXXXXXXXXXXXXXXXXXXXXXXXXX          ",
"          XXXXXXXXXXXXXXXXXXXX++++++++++XXXXXXXXXXXXXXXXXXXXXXXXXXXXXX          ",
"          XXXXXXXXXXXXXXXXXXXX++++++++++XXXXXXXXXXXXXXXXXXXXXXXXXXXXXX          ",
"          XXXXXXXXXXXXXXXXXXXX++++++++++XXXXXXXXXXXXXXXXXXXXXXXXXXXXXX          ",
"          ..........XXXXXXXXXXXXXXXXXXXXXXXXXXXXXXXXXXXXXXXX..........          ",
"          ..........XXXXXXXXXXXXXXXXXXXXXXXXXXXXXXXXXXXXXXXX..........          ",
"          ..........XXXXXXXXXXXXXXXXXXXXXXXXXXXXXXXXXXXXXXXX..........          ",
"          ..........XXXXXXXXXXXXXXXXXXXXXXXXXXXXXXXXXXXXXXXX..........          ",
"          ..........XXXXXXXXXXXXXXXXXXXXXXXXXXXXXXXXXXXXXXXX..........          ",
"          ..........XXXXXXXXXXXXXXXXXXXXXXXXXXXXXXXXXXXXXXXX..........          ",
"          ..........XXXXXXXXXXXXXXXXXXXXXXXXXXXXXXXXXXXXXXXX..........          ",
"          ..........XXXXXXXXXXXXXXXXXXXXXXXXXXXXXXXXXXXXXXXX..........          ",
"          ..........XXXXXXXXXXXXXXXXXXXXXXXXXXXXXXXXXXXXXXXX..........          ",
"          ..........XXXXXXXXXXXXXXXXXXXXXXXXXXXXXXXXXXXXXXXX..........          ",
"                    ..........XXXXXXXXXXXXXXXXXXXX..........                    ",
"                    ..........XXXXXXXXXXXXXXXXXXXX..........                    ",
"                    ..........XXXXXXXXXXXXXXXXXXXX..........                    ",
"                    ..........XXXXXXXXXXXXXXXXXXXX..........                    ",
"                    ..........XXXXXXXXXXXXXXXXXXXX..........                    ",
"                    ..........XXXXXXXXXXXXXXXXXXXX..........                    ",
"                    ..........XXXXXXXXXXXXXXXXXXXX..........                    ",
"                    ..........XXXXXXXXXXXXXXXXXXXX..........                    ",
"                    ..........XXXXXXXXXXXXXXXXXXXX..........                    ",
"                    ..........XXXXXXXXXXXXXXXXXXXX..........                    "
};
