/* XPM */
static char *result[] = {
/* columns rows colors chars-per-pixel */
"8 8 3 1 ",
"  c black",
". c #29ADFF",
"X c #FFF1E8",
/* pixels */
" XXXXXX ",
"XXXXXXXX",
"XXX.XXXX",
"XX...XXX",
"XX....XX",
"XXX..XXX",
"XXXXXXXX",
" XXXXXX "
};
